<svg width="180" height="180" viewBox="0 0 180 180" fill="none" xmlns="http://www.w3.org/2000/svg">
<g filter="url(#filter0_d_115_205)">
<circle cx="85" cy="85" r="75" fill="white"/>
<g clip-path="url(#clip0_115_205)">
<path d="M40 41H130V131H40V41Z" fill="#F7DF1E"/>
<path d="M63.6644 116.21L70.5515 112.042C71.8804 114.398 73.0891 116.391 75.9884 116.391C78.7675 116.391 80.5201 115.304 80.5201 111.076V82.3187H88.9776V111.195C88.9776 119.955 83.8427 123.943 76.3509 123.943C69.5851 123.943 65.6578 120.439 63.6641 116.21M93.5715 115.304L100.458 111.317C102.271 114.278 104.627 116.452 108.795 116.452C112.3 116.452 114.534 114.7 114.534 112.283C114.534 109.384 112.239 108.356 108.372 106.665L106.258 105.758C100.156 103.161 96.1087 99.8989 96.1087 93.0118C96.1087 86.6682 100.942 81.835 108.494 81.835C113.87 81.835 117.737 83.7081 120.516 88.6015L113.93 92.8308C112.48 90.2331 110.91 89.2062 108.493 89.2062C106.016 89.2062 104.445 90.777 104.445 92.8308C104.445 95.368 106.016 96.3956 109.641 97.9664L111.755 98.8724C118.944 101.954 122.992 105.095 122.992 112.163C122.992 119.776 117.011 123.944 108.976 123.944C101.123 123.944 96.0479 120.198 93.5711 115.304" fill="black"/>
</g>
</g>
<defs>
<filter id="filter0_d_115_205" x="0" y="0" width="180" height="180" filterUnits="userSpaceOnUse" color-interpolation-filters="sRGB">
<feFlood flood-opacity="0" result="BackgroundImageFix"/>
<feColorMatrix in="SourceAlpha" type="matrix" values="0 0 0 0 0 0 0 0 0 0 0 0 0 0 0 0 0 0 127 0" result="hardAlpha"/>
<feOffset dx="5" dy="5"/>
<feGaussianBlur stdDeviation="7.5"/>
<feComposite in2="hardAlpha" operator="out"/>
<feColorMatrix type="matrix" values="0 0 0 0 0 0 0 0 0 0 0 0 0 0 0 0 0 0 0.15 0"/>
<feBlend mode="normal" in2="BackgroundImageFix" result="effect1_dropShadow_115_205"/>
<feBlend mode="normal" in="SourceGraphic" in2="effect1_dropShadow_115_205" result="shape"/>
</filter>
<clipPath id="clip0_115_205">
<rect width="90" height="90" fill="white" transform="translate(40 41)"/>
</clipPath>
</defs>
</svg>
