<svg width="180" height="180" viewBox="0 0 180 180" fill="none" xmlns="http://www.w3.org/2000/svg">
<g filter="url(#filter0_d_115_196)">
<circle cx="85" cy="85" r="75" fill="white"/>
<path d="M53.4438 122.003L46.425 43.25H123.575L116.547 121.991L84.9532 130.75L53.4438 122.003Z" fill="#1572B6"/>
<path d="M85 124.056L110.531 116.978L116.537 49.6907H85V124.056Z" fill="#33A9DC"/>
<path d="M85 78.2219H97.7812L98.6625 68.3313H85V58.6719H109.219L108.988 61.2625L106.616 87.8813H85V78.2219Z" fill="white"/>
<path d="M85.0594 103.306L85.0156 103.319L74.2594 100.413L73.5719 92.7095H63.875L65.2281 107.875L85.0125 113.369L85.0594 113.356V103.306Z" fill="#EBEBEB"/>
<path d="M96.9594 87.4719L95.7969 100.406L85.025 103.313V113.363L104.825 107.875L104.972 106.244L106.65 87.4719H96.9594Z" fill="white"/>
<path d="M85.0344 58.6719V68.3313H61.7032L61.5094 66.1594L61.0688 61.2625L60.8375 58.6719H85.0344ZM85 78.2219V87.8813H74.3781L74.1844 85.7094L73.7469 80.8125L73.5156 78.2219H85Z" fill="#EBEBEB"/>
</g>
<defs>
<filter id="filter0_d_115_196" x="0" y="0" width="180" height="180" filterUnits="userSpaceOnUse" color-interpolation-filters="sRGB">
<feFlood flood-opacity="0" result="BackgroundImageFix"/>
<feColorMatrix in="SourceAlpha" type="matrix" values="0 0 0 0 0 0 0 0 0 0 0 0 0 0 0 0 0 0 127 0" result="hardAlpha"/>
<feOffset dx="5" dy="5"/>
<feGaussianBlur stdDeviation="7.5"/>
<feComposite in2="hardAlpha" operator="out"/>
<feColorMatrix type="matrix" values="0 0 0 0 0 0 0 0 0 0 0 0 0 0 0 0 0 0 0.15 0"/>
<feBlend mode="normal" in2="BackgroundImageFix" result="effect1_dropShadow_115_196"/>
<feBlend mode="normal" in="SourceGraphic" in2="effect1_dropShadow_115_196" result="shape"/>
</filter>
</defs>
</svg>
