<svg width="180" height="180" viewBox="0 0 180 180" fill="none" xmlns="http://www.w3.org/2000/svg">
<g filter="url(#filter0_d_115_217)">
<circle cx="85" cy="85" r="75" fill="white"/>
<g clip-path="url(#clip0_115_217)">
<path d="M69.0228 113.033C69.0228 113.033 64.3829 115.732 72.3251 116.645C81.947 117.742 86.8643 117.585 97.4678 115.578C97.4678 115.578 100.256 117.326 104.148 118.84C80.379 129.027 50.3528 118.25 69.0228 113.033ZM66.1182 99.7395C66.1182 99.7395 60.914 103.592 68.8622 104.414C79.1405 105.474 87.2573 105.561 101.303 102.856C101.303 102.856 103.246 104.826 106.3 105.903C77.5612 114.307 45.5511 106.566 66.1182 99.7395Z" fill="#5382A1"/>
<path d="M90.6046 77.1888C96.4616 83.9318 89.0658 89.9998 89.0658 89.9998C89.0658 89.9998 103.937 82.3227 97.1074 72.7089C90.7287 63.744 85.8367 59.289 112.319 43.9307C112.319 43.9307 70.7508 54.3123 90.6046 77.1885" fill="#E76F00"/>
<path d="M122.042 122.866C122.042 122.866 125.476 125.695 118.26 127.884C104.54 132.041 61.1552 133.296 49.103 128.05C44.7707 126.165 52.8953 123.55 55.4508 123.001C58.116 122.423 59.6393 122.531 59.6393 122.531C54.8211 119.136 28.4968 129.195 46.268 132.075C94.7319 139.935 134.613 128.537 122.042 122.866ZM71.2539 85.9655C71.2539 85.9655 49.1859 91.2073 63.4393 93.1103C69.4574 93.9161 81.4544 93.734 92.6296 92.7975C101.762 92.0275 110.933 90.3893 110.933 90.3893C110.933 90.3893 107.713 91.7684 105.383 93.3593C82.9728 99.2532 39.6807 96.5114 52.144 90.4824C62.6842 85.3876 71.2542 85.9655 71.2542 85.9655M110.842 108.094C133.623 96.2558 123.09 84.8799 115.738 86.4127C113.936 86.7875 113.133 87.1123 113.133 87.1123C113.133 87.1123 113.802 86.0647 115.079 85.6112C129.623 80.4977 140.809 100.692 110.384 108.69C110.384 108.691 110.737 108.376 110.842 108.094Z" fill="#5382A1"/>
<path d="M97.1074 19.1305C97.1074 19.1305 109.724 31.7516 85.1413 51.1582C65.4289 66.7261 80.6462 75.6023 85.1332 85.7438C73.6266 75.3622 65.1821 66.223 70.8475 57.7173C79.1623 45.2308 102.198 39.1773 97.1074 19.1301" fill="#E76F00"/>
<path d="M73.4926 140.171C95.3595 141.571 128.938 139.395 129.733 129.048C129.733 129.048 128.205 132.971 111.662 136.085C92.998 139.598 69.9791 139.188 56.3262 136.937C56.3265 136.937 59.1211 139.25 73.493 140.171" fill="#5382A1"/>
</g>
</g>
<defs>
<filter id="filter0_d_115_217" x="0" y="0" width="180" height="180" filterUnits="userSpaceOnUse" color-interpolation-filters="sRGB">
<feFlood flood-opacity="0" result="BackgroundImageFix"/>
<feColorMatrix in="SourceAlpha" type="matrix" values="0 0 0 0 0 0 0 0 0 0 0 0 0 0 0 0 0 0 127 0" result="hardAlpha"/>
<feOffset dx="5" dy="5"/>
<feGaussianBlur stdDeviation="7.5"/>
<feComposite in2="hardAlpha" operator="out"/>
<feColorMatrix type="matrix" values="0 0 0 0 0 0 0 0 0 0 0 0 0 0 0 0 0 0 0.15 0"/>
<feBlend mode="normal" in2="BackgroundImageFix" result="effect1_dropShadow_115_217"/>
<feBlend mode="normal" in="SourceGraphic" in2="effect1_dropShadow_115_217" result="shape"/>
</filter>
<clipPath id="clip0_115_217">
<rect width="90" height="121.641" fill="white" transform="translate(40 19)"/>
</clipPath>
</defs>
</svg>
