<svg width="180" height="180" viewBox="0 0 180 180" fill="none" xmlns="http://www.w3.org/2000/svg">
<g filter="url(#filter0_d_115_210)">
<circle cx="85" cy="85" r="75" fill="white"/>
<path d="M85 92.7312C89.3147 92.7312 92.8125 89.2334 92.8125 84.9187C92.8125 80.604 89.3147 77.1062 85 77.1062C80.6853 77.1062 77.1875 80.604 77.1875 84.9187C77.1875 89.2334 80.6853 92.7312 85 92.7312Z" fill="#00D8FF"/>
<path d="M85 102.831C75.6098 103.058 66.2431 101.793 57.25 99.0812C53.0957 97.7643 49.221 95.6898 45.8219 92.9625C44.5248 92.0308 43.4446 90.8295 42.6554 89.4411C41.8663 88.0526 41.3868 86.5099 41.25 84.9187C41.25 79.7531 46.925 74.6906 56.4312 71.3781C65.6648 68.4429 75.3123 67.0204 85 67.1656C94.5585 67.0321 104.077 68.4289 113.194 71.3031C117.195 72.5786 120.938 74.5529 124.25 77.1344C125.525 78.0226 126.589 79.1804 127.367 80.5256C128.144 81.8708 128.617 83.3706 128.75 84.9187C128.75 90.2875 122.406 95.7281 112.188 99.1094C103.369 101.732 94.1995 102.988 85 102.831ZM85 70.9031C75.7316 70.7792 66.5026 72.1316 57.6594 74.9094C48.9094 77.9625 44.9875 82.1375 44.9875 84.9094C44.9875 87.8094 49.2031 92.3687 58.4594 95.5344C67.0627 98.1152 76.0207 99.3165 85 99.0937C93.8013 99.2511 102.575 98.0602 111.016 95.5625C120.625 92.3781 125 87.8125 125 84.9187C124.842 83.9257 124.48 82.9761 123.937 82.13C123.394 81.284 122.681 80.5597 121.844 80.0031C118.88 77.7129 115.537 75.9632 111.966 74.8344C103.244 72.0961 94.1406 70.769 85 70.9031Z" fill="#00D8FF"/>
<path d="M67.25 123.884C65.7922 123.918 64.3516 123.564 63.075 122.859C58.6 120.278 57.05 112.834 58.9281 102.944C60.9989 93.4785 64.5869 84.4104 69.5531 76.0907C74.2117 67.7442 80.1756 60.1967 87.2187 53.7345C90.3224 50.9054 93.9027 48.6487 97.7938 47.0688C99.2011 46.4093 100.736 46.0674 102.291 46.0674C103.845 46.0674 105.38 46.4093 106.788 47.0688C111.441 49.7501 112.981 57.9626 110.809 68.5032C108.675 77.455 105.18 86.0265 100.447 93.9189C95.9523 102.167 90.1762 109.649 83.3344 116.084C80.1181 119.024 76.3854 121.344 72.325 122.925C70.6994 123.528 68.9836 123.853 67.25 123.884ZM72.7906 77.947C68.0534 85.9136 64.6146 94.5836 62.6031 103.631C60.875 112.741 62.5344 118.219 64.9469 119.613C67.4469 121.059 73.5156 119.688 80.8844 113.25C87.4157 107.084 92.9289 99.9226 97.2188 92.0314C101.753 84.4861 105.105 76.2912 107.159 67.7314C109.203 57.8095 107.438 51.7345 104.931 50.2907C103.992 49.9308 102.988 49.7697 101.983 49.8176C100.979 49.8654 99.9946 50.1213 99.0938 50.5688C95.6303 51.9981 92.446 54.0271 89.6875 56.5626C82.9583 62.7526 77.2615 69.978 72.8125 77.9657L72.7906 77.947Z" fill="#00D8FF"/>
<path d="M102.741 123.925C98.5063 123.925 93.1281 121.362 87.5281 116.547C80.3616 110.026 74.2968 102.389 69.5688 93.9312C64.6648 85.726 61.1052 76.7891 59.025 67.4593C58.1229 63.3546 57.9557 59.1224 58.5313 54.9593C58.6643 53.415 59.1346 51.9186 59.9089 50.5758C60.6832 49.2329 61.7426 48.0763 63.0125 47.1874C67.6594 44.4968 75.5438 47.2624 83.5906 54.4062C90.28 60.7255 95.9606 68.0334 100.434 76.0749C105.335 84.0885 108.932 92.8297 111.091 101.972C112.032 106.227 112.177 110.62 111.519 114.928C111.362 116.517 110.864 118.053 110.058 119.431C109.252 120.809 108.158 121.997 106.85 122.912C105.594 123.608 104.176 123.958 102.741 123.925ZM72.8031 92.0499C77.3389 100.133 83.1322 107.442 89.9656 113.703C96.9938 119.75 102.569 121.05 104.966 119.641C107.466 118.187 109.309 112.256 107.409 102.659C105.328 93.931 101.878 85.5871 97.1875 77.9374C92.9182 70.2409 87.4961 63.2432 81.1094 57.1874C73.5344 50.4624 67.3906 48.9593 64.8875 50.4093C64.1073 51.0433 63.4671 51.8322 63.0072 52.7261C62.5473 53.6201 62.2778 54.5997 62.2156 55.6031C61.7188 59.3158 61.8806 63.0871 62.6938 66.7437C64.6947 75.666 68.1086 84.2112 72.8063 92.0562L72.8031 92.0499Z" fill="#00D8FF"/>
</g>
<defs>
<filter id="filter0_d_115_210" x="0" y="0" width="180" height="180" filterUnits="userSpaceOnUse" color-interpolation-filters="sRGB">
<feFlood flood-opacity="0" result="BackgroundImageFix"/>
<feColorMatrix in="SourceAlpha" type="matrix" values="0 0 0 0 0 0 0 0 0 0 0 0 0 0 0 0 0 0 127 0" result="hardAlpha"/>
<feOffset dx="5" dy="5"/>
<feGaussianBlur stdDeviation="7.5"/>
<feComposite in2="hardAlpha" operator="out"/>
<feColorMatrix type="matrix" values="0 0 0 0 0 0 0 0 0 0 0 0 0 0 0 0 0 0 0.15 0"/>
<feBlend mode="normal" in2="BackgroundImageFix" result="effect1_dropShadow_115_210"/>
<feBlend mode="normal" in="SourceGraphic" in2="effect1_dropShadow_115_210" result="shape"/>
</filter>
</defs>
</svg>
