<svg width="180" height="180" viewBox="0 0 180 180" fill="none" xmlns="http://www.w3.org/2000/svg">
<g filter="url(#filter0_d_115_225)">
<circle cx="85" cy="85" r="75" fill="white"/>
<path d="M119.188 104.3C108.9 118.004 86.9334 113.379 72.8459 114.042C72.8459 114.042 70.35 114.183 67.8417 114.596C67.8417 114.596 68.7917 114.192 70.0042 113.771C79.8959 110.35 84.5709 109.662 90.5834 106.575C101.875 100.792 113.117 88.1874 115.404 75.0957C111.104 87.6874 98.0292 98.5249 86.125 102.925C77.9792 105.933 63.2417 108.858 63.2375 108.858C63.0373 108.756 62.8387 108.65 62.6417 108.542C52.6209 103.667 52.3292 81.9582 70.5334 74.9624C78.5167 71.8957 86.1459 73.5791 94.775 71.5249C103.975 69.3374 114.633 62.4416 118.963 53.4249C123.817 67.8332 129.65 90.3666 119.188 104.3ZM119.363 48.9666C118.199 51.7572 116.709 54.4005 114.925 56.8416C111.047 52.8443 106.405 49.6666 101.275 47.4972C96.1454 45.3278 90.6322 44.2108 85.0625 44.2124C62.05 44.2124 43.3334 62.9291 43.3334 85.9374C43.3307 91.6767 44.5157 97.3544 46.814 102.613C49.1122 107.872 52.4739 112.599 56.6875 116.496L57.6042 117.304C56.9361 116.635 56.5611 115.728 56.5616 114.782C56.5622 113.836 56.9384 112.93 57.6073 112.261C58.2763 111.593 59.1834 111.217 60.129 111.217C61.0747 111.218 61.9816 111.593 62.6503 112.262C63.319 112.931 63.6948 113.838 63.695 114.783C63.6952 115.729 63.3198 116.636 62.6514 117.305C61.9829 117.974 61.0762 118.35 60.1305 118.351C59.1848 118.351 58.2776 117.976 57.6084 117.308L58.2292 117.858C65.7309 124.2 75.2392 127.676 85.0625 127.667C107.054 127.667 125.117 110.55 126.663 88.9499C127.804 78.3707 124.679 64.9374 119.363 48.9666Z" fill="#6CB52D"/>
</g>
<defs>
<filter id="filter0_d_115_225" x="0" y="0" width="180" height="180" filterUnits="userSpaceOnUse" color-interpolation-filters="sRGB">
<feFlood flood-opacity="0" result="BackgroundImageFix"/>
<feColorMatrix in="SourceAlpha" type="matrix" values="0 0 0 0 0 0 0 0 0 0 0 0 0 0 0 0 0 0 127 0" result="hardAlpha"/>
<feOffset dx="5" dy="5"/>
<feGaussianBlur stdDeviation="7.5"/>
<feComposite in2="hardAlpha" operator="out"/>
<feColorMatrix type="matrix" values="0 0 0 0 0 0 0 0 0 0 0 0 0 0 0 0 0 0 0.15 0"/>
<feBlend mode="normal" in2="BackgroundImageFix" result="effect1_dropShadow_115_225"/>
<feBlend mode="normal" in="SourceGraphic" in2="effect1_dropShadow_115_225" result="shape"/>
</filter>
</defs>
</svg>
