<svg width="180" height="180" viewBox="0 0 180 180" fill="none" xmlns="http://www.w3.org/2000/svg">
<g filter="url(#filter0_d_115_188)">
<circle cx="85" cy="85" r="75" fill="white"/>
<path d="M53.4437 123.003L46.4219 44.25H123.578L116.547 122.991L84.9531 131.75L53.4437 123.003Z" fill="#E44F26"/>
<path d="M85 125.056L110.531 117.978L116.538 50.6907H85V125.056Z" fill="#F1662A"/>
<path d="M85 79.8969H72.2188L71.3375 70.0063H85V60.3469H60.7812L61.0125 62.9407L63.3844 89.5563H85V79.8969ZM85 104.981L84.9562 104.994L74.2 102.091L73.5125 94.3875H63.8156L65.1688 109.55L84.9562 115.044L85 115.031V104.981Z" fill="#EBEBEB"/>
<path d="M84.9656 79.8969V89.5563H96.8594L95.7406 102.084L84.9656 104.991V115.041L104.769 109.55L104.913 107.919L107.181 82.4907L107.419 79.8969H84.9656ZM84.9656 60.3469V70.0063H108.297L108.491 67.8376L108.931 62.9407L109.163 60.3469H84.9656Z" fill="white"/>
</g>
<defs>
<filter id="filter0_d_115_188" x="0" y="0" width="180" height="180" filterUnits="userSpaceOnUse" color-interpolation-filters="sRGB">
<feFlood flood-opacity="0" result="BackgroundImageFix"/>
<feColorMatrix in="SourceAlpha" type="matrix" values="0 0 0 0 0 0 0 0 0 0 0 0 0 0 0 0 0 0 127 0" result="hardAlpha"/>
<feOffset dx="5" dy="5"/>
<feGaussianBlur stdDeviation="7.5"/>
<feComposite in2="hardAlpha" operator="out"/>
<feColorMatrix type="matrix" values="0 0 0 0 0 0 0 0 0 0 0 0 0 0 0 0 0 0 0.15 0"/>
<feBlend mode="normal" in2="BackgroundImageFix" result="effect1_dropShadow_115_188"/>
<feBlend mode="normal" in="SourceGraphic" in2="effect1_dropShadow_115_188" result="shape"/>
</filter>
</defs>
</svg>
