<svg width="20" height="15" viewBox="0 0 20 15" fill="none" xmlns="http://www.w3.org/2000/svg">
<path d="M11.332 14.4152C11.0736 14.1569 10.9496 13.8447 10.96 13.4788C10.9712 13.1128 11.1059 12.8006 11.3643 12.5423L15.0132 8.89334H0.611125C0.245153 8.89334 -0.0618334 8.76934 -0.309833 8.52134C-0.556972 8.2742 -0.680542 7.96765 -0.680542 7.60168C-0.680542 7.2357 -0.556972 6.92872 -0.309833 6.68072C-0.0618334 6.43358 0.245153 6.31001 0.611125 6.31001H15.0132L11.332 2.62876C11.0736 2.37043 10.9445 2.06344 10.9445 1.7078C10.9445 1.35302 11.0736 1.04647 11.332 0.788134C11.5903 0.529801 11.8973 0.400635 12.2529 0.400635C12.6077 0.400635 12.9143 0.529801 13.1726 0.788134L19.082 6.69751C19.2111 6.82668 19.3028 6.96661 19.3571 7.1173C19.4105 7.268 19.4372 7.42945 19.4372 7.60168C19.4372 7.7739 19.4105 7.93536 19.3571 8.08605C19.3028 8.23675 19.2111 8.37668 19.082 8.50584L13.1403 14.4475C12.9035 14.6843 12.6077 14.8027 12.2529 14.8027C11.8973 14.8027 11.5903 14.6736 11.332 14.4152V14.4152Z" fill="black"/>
</svg>
