<svg width="30" height="30" viewBox="0 0 30 30" fill="none" xmlns="http://www.w3.org/2000/svg">
<path d="M21.25 16.4126V21.0339H18.5713V16.7214C18.5713 15.6389 18.1837 14.9001 17.2137 14.9001C16.4737 14.9001 16.0325 15.3976 15.8387 15.8801C15.7687 16.0526 15.75 16.2926 15.75 16.5326V21.0339H13.07C13.07 21.0339 13.1063 13.7314 13.07 12.9751H15.75V14.1164L15.7325 14.1426H15.75V14.1176C16.1063 13.5676 16.7412 12.7851 18.165 12.7851C19.9275 12.7851 21.25 13.9376 21.25 16.4126V16.4126ZM10.2662 9.08887C9.35 9.08887 8.75 9.69137 8.75 10.4814C8.75 11.2564 9.3325 11.8751 10.2312 11.8751H10.2487C11.1837 11.8751 11.765 11.2551 11.765 10.4814C11.7475 9.69137 11.1837 9.08887 10.2662 9.08887V9.08887ZM8.90875 21.0339H11.5887V12.9751H8.90875V21.0339V21.0339Z" fill="white"/>
<path d="M15 25C17.6522 25 20.1957 23.9464 22.0711 22.0711C23.9464 20.1957 25 17.6522 25 15C25 12.3478 23.9464 9.8043 22.0711 7.92893C20.1957 6.05357 17.6522 5 15 5C12.3478 5 9.8043 6.05357 7.92893 7.92893C6.05357 9.8043 5 12.3478 5 15C5 17.6522 6.05357 20.1957 7.92893 22.0711C9.8043 23.9464 12.3478 25 15 25V25ZM15 27.5C8.09625 27.5 2.5 21.9037 2.5 15C2.5 8.09625 8.09625 2.5 15 2.5C21.9037 2.5 27.5 8.09625 27.5 15C27.5 21.9037 21.9037 27.5 15 27.5Z" fill="white"/>
</svg>
