<svg width="183" height="73" viewBox="0 0 183 73" fill="none" xmlns="http://www.w3.org/2000/svg">
<path d="M61.1554 13.3305L73.3743 10.5032C76.559 10.1264 82.7037 11.1017 83.6882 11.1827C88.7829 11.8427 94.7885 14.6745 95.3032 14.8855C103.582 18.6031 104.755 21.7123 104.993 22.2018C105.731 24.1184 104.723 23.5896 104.402 23.527C103.846 23.5295 102.468 22.0424 102.403 21.808C102.35 21.6205 101.909 21.4903 101.694 21.4485C101.999 22.3573 102.618 24.2431 102.654 24.516C103.051 26.4768 102.304 26.8853 101.876 26.8019C100.847 26.3799 99.6906 22.6093 99.4733 22.013C99.256 21.4167 98.5304 21.7186 98.6375 21.7394C98.7445 21.7603 99.0131 23.8069 99.1444 24.2756C99.5232 26.8977 98.325 26.775 98.1109 26.7333C97.442 26.5144 96.6771 24.2013 96.3779 23.072C96.2823 23.755 96.0741 25.2065 96.0073 25.5481C95.7058 28.8131 93.7765 24.4488 93.7253 22.9984C92.8432 25.8181 90.8549 22.3286 90.5512 21.6047C90.2474 20.8807 88.6242 21.2292 88.2788 20.7188C87.9407 20.2186 85.5887 19.6454 83.8822 19.3086C84.9294 19.6208 84.1828 22.9225 84.1224 23.233C83.7902 24.941 81.3787 25.9117 80.332 26.1509C81.2927 25.7841 81.6903 24.3104 81.8564 23.4564C80.7488 24.9276 81.2063 26.1509 77.6217 23.5179C76.209 23.3535 72.5989 24.2014 71.6802 24.3549C70.7611 24.5082 67.1272 24.9083 66.2085 25.0617C65.4733 25.1844 64.2152 29.216 63.6776 31.2164C63.345 31.5948 62.6386 32.7868 62.478 34.5281C62.2767 36.7048 59.3835 43.0106 59.238 43.7577C59.0925 44.5049 56.2789 49.829 56.1096 50.1285C55.7121 51.6018 52.9575 56.051 52.5773 56.8636C51.9546 58.6922 51.4976 58.7952 51.3466 58.618C51.3516 58.2129 51.3901 57.2528 51.5063 56.6549C51.6518 55.9077 50.1997 59.9458 50.0336 60.7996C49.9361 62.4428 49.6388 62.8278 49.4247 62.7861C48.5888 62.5128 49.6928 57.4094 50.132 55.7223C49.4096 56.5789 48.683 60.3152 48.5998 60.7419C48.8894 62.6817 47.6111 63.5411 47.4387 63.2856C47.1289 63.048 48.3271 56.811 48.9653 53.7224C48.2255 55.2402 46.7181 58.6473 46.6069 60.1321C46.4683 61.9886 45.3385 62.6552 45.1452 62.5064C44.7999 61.9964 46.2249 56.9556 46.3288 56.4218C46.0556 57.2551 44.8842 58.135 44.67 58.0929C44.4559 58.0512 45.8154 52.7766 45.8777 52.4561C45.6667 52.9693 45.0035 52.9505 44.6823 52.8883C44.361 52.8256 45.091 49.6441 45.1948 49.1103C45.2986 48.5764 44.3655 49.9458 44.0443 49.8831C43.7231 49.8208 44.7775 47.256 44.5634 47.2144C44.0521 47.5582 43.6653 47.2611 43.4719 47.1127C43.2785 46.9644 44.523 43.9935 44.7963 43.1607C44.3264 43.2908 43.7703 43.293 43.6392 42.8242C43.5081 42.3556 44.9111 40.8562 45.2498 40.2574C44.7384 40.601 43.8371 40.093 43.7715 39.8587C43.6612 39.2832 44.4457 38.1065 45.1887 37.1433C44.7845 37.5077 44.5047 37.2316 44.2043 37.0623C43.9039 36.893 44.5605 35.8022 44.7474 34.8414C44.3639 35.0991 43.6591 35.2942 43.2517 35.1041C42.8441 34.9139 43.4385 34.1433 43.6046 33.2893C42.991 33.7016 42.764 33.4211 42.7273 33.2292L43.3294 30.1335L42.5799 29.9875C42.4252 29.8687 42.7253 29.2403 42.8946 28.9409C42.8797 28.8272 42.2535 29.0376 39.8681 30.7888C37.5683 32.5567 36.4042 32.2192 36.1095 31.8294C37.9488 30.5627 41.733 27.8282 42.1561 27.0243C42.2807 26.3838 36.138 29.3975 33.3847 30.4123C30.6313 31.4271 28.0233 31.6946 27.8267 30.9916C27.6856 30.7358 27.85 30.5587 28.1394 30.4389C25.9415 30.8019 22.6744 31.3899 20.6451 31.9194C18.0665 32.8353 17.8597 32.337 18.0786 31.9734L20.8319 30.9586C19.244 31.3141 15.8202 32.0432 14.8281 32.1158C11.0728 33.711 10.98 32.4742 11.1078 32.3883C11.0266 31.9082 16.3637 30.3852 21.4062 29.0963C20.4853 29.2643 19.8293 29.38 19.6891 29.4065C18.6872 29.9869 11.9689 29.6754 12.052 29.2484C12.2378 29.1235 14.391 28.6941 17.0775 28.1754C14.1417 28.4371 8.24838 28.9842 6.72563 29.2081C4.80482 29.9419 4.88461 28.9602 4.90538 28.8535C5.14053 28.1016 15.6867 26.5587 20.9305 25.8813L17.3971 25.1931C16.4496 24.1221 17.1961 23.7505 17.6877 23.6986C19.9811 24.4776 23.639 24.5254 24.4956 24.6922C25.8662 24.9592 34.7507 22.6274 39.0217 21.428C38.275 21.3191 36.5033 21.0248 35.3203 20.7104C35.3023 20.7069 35.2869 20.7028 35.2741 20.6981C35.2894 20.7022 35.3048 20.7063 35.3203 20.7104C36.1848 20.8786 43.0444 19.6588 43.6095 19.5518C45.5142 17.5297 56.1005 14.5618 61.1554 13.3305Z" fill="#FD8C11"/>
<path d="M56.6495 35.4213L55.4197 49.1928H51.6426L53.4872 29.6782H58.7576L63.7352 43.6842L68.5664 29.6782H73.8368L75.6229 49.1928H71.8165L70.4696 35.4799L65.3163 49.3979L61.832 49.7202L56.6495 35.4213ZM83.2691 49.6323C81.7072 49.6323 80.4678 48.968 79.5505 47.6399C78.6328 46.3117 78.1744 44.5046 78.1744 42.2191C78.1744 39.4453 78.8771 37.3356 80.2825 35.8901C81.688 34.425 83.7083 33.6925 86.3435 33.6925C87.8267 33.6925 89.5643 33.9269 91.5553 34.3957V49.1928H87.6318L87.7197 46.7901H87.6025C87.0947 47.7081 86.4702 48.4113 85.7286 48.8998C85.0062 49.3883 84.1864 49.6323 83.2691 49.6323ZM84.1475 46.0283C84.7523 46.0283 85.348 45.706 85.9336 45.0614C86.5192 44.4167 87.0654 43.5574 87.5733 42.4829V37.5602C86.9483 37.3844 86.3238 37.2965 85.6993 37.2965C84.5281 37.2965 83.6397 37.697 83.0349 38.4979C82.4493 39.2988 82.1565 40.4806 82.1565 42.0433C82.1565 43.274 82.3321 44.2505 82.6835 44.9735C83.0349 45.6767 83.5226 46.0283 84.1475 46.0283ZM102.375 49.6323C99.8764 49.6323 97.9338 48.968 96.548 47.6399C95.1815 46.3117 94.4984 44.4364 94.4984 42.014C94.4984 40.3732 94.8205 38.9277 95.4647 37.6775C96.1088 36.4077 97.0165 35.431 98.1877 34.7473C99.3589 34.0441 100.715 33.6925 102.258 33.6925C102.98 33.6925 103.731 33.7804 104.512 33.9562C105.312 34.1125 105.927 34.2981 106.357 34.5129L105.566 37.9998C105.117 37.7849 104.62 37.6188 104.073 37.5016C103.546 37.3649 103.048 37.2965 102.58 37.2965C101.37 37.2965 100.393 37.7068 99.6517 38.5272C98.9293 39.3476 98.5684 40.4318 98.5684 41.7796C98.5684 43.1472 98.9394 44.202 99.681 44.9442C100.442 45.6863 101.516 46.0576 102.902 46.0576C103.819 46.0576 104.805 45.8818 105.859 45.5302L106.474 48.8705C105.205 49.3782 103.839 49.6323 102.375 49.6323ZM113.636 49.6323C112.074 49.6323 110.834 48.968 109.917 47.6399C108.999 46.3117 108.541 44.5046 108.541 42.2191C108.541 39.4453 109.244 37.3356 110.649 35.8901C112.055 34.425 114.075 33.6925 116.71 33.6925C118.193 33.6925 119.931 33.9269 121.922 34.3957V49.1928H117.998L118.086 46.7901H117.969C117.461 47.7081 116.837 48.4113 116.095 48.8998C115.373 49.3883 114.553 49.6323 113.636 49.6323ZM114.514 46.0283C115.119 46.0283 115.715 45.706 116.3 45.0614C116.886 44.4167 117.432 43.5574 117.94 42.4829V37.5602C117.315 37.3844 116.69 37.2965 116.066 37.2965C114.895 37.2965 114.006 37.697 113.401 38.4979C112.816 39.2988 112.523 40.4806 112.523 42.0433C112.523 43.274 112.699 44.2505 113.05 44.9735C113.401 45.6767 113.889 46.0283 114.514 46.0283ZM124.216 34.1027H128.433L131.126 44.0944L134.025 34.1906L138.681 33.8097L141.814 44.3874L144.566 34.1027H148.489L143.892 49.1928H139.383L136.28 38.2342L133.03 49.1928H128.608L124.216 34.1027Z" fill="#02485A"/>
<path d="M152.234 50.1891C151.414 50.1891 150.702 49.8864 150.097 49.2807C149.511 48.6947 149.218 47.9915 149.218 47.171C149.218 46.3309 149.511 45.6181 150.097 45.0321C150.702 44.4263 151.414 44.1237 152.234 44.1237C153.074 44.1237 153.786 44.4263 154.371 45.0321C154.957 45.6181 155.25 46.3309 155.25 47.171C155.25 47.9915 154.957 48.6947 154.371 49.2807C153.786 49.8864 153.074 50.1891 152.234 50.1891ZM159.435 29.6782H163.681V49.1928H159.435V29.6782ZM172.165 33.3702H166.837V29.6782H181.711V33.3702H176.44V49.1928H172.165V33.3702Z" fill="#FD8C11"/>
<path d="M80.0625 26.3011C80.7945 26.118 81.5873 24.2409 81.8925 23.3252C82.1977 23.3252 83.0363 23.4168 83.9513 23.783C83.4938 24.9276 81.9611 25.8261 80.0625 26.3011Z" fill="#787878"/>
<path d="M80.1137 26.2887C80.4404 26.1833 80.7602 25.6031 80.9775 25.3855C81.1212 25.3855 81.462 25.5017 81.8925 25.6144C81.6816 25.9596 80.9533 26.0849 80.1137 26.2887C80.0964 26.2942 80.0794 26.2984 80.0625 26.3012C80.0794 26.2969 80.0968 26.2928 80.1137 26.2887Z" fill="#333333"/>
<path d="M80.7488 25.1565C79.8809 25.5909 78.3089 24.1645 77.5463 23.5541L81.8925 23.3252C81.5874 23.8593 81.2063 24.9276 80.7488 25.1565Z" fill="#333333"/>
<path d="M80.9775 21.2652C81.4828 21.2652 81.8925 20.8552 81.8925 20.3495C81.8925 19.8438 81.4828 19.4338 80.9775 19.4338C80.4722 19.4338 80.0625 19.8438 80.0625 20.3495C80.0625 20.8552 80.4722 21.2652 80.9775 21.2652Z" fill="#F3F3F3"/>
<path d="M81.435 20.3494C81.435 20.6023 81.2301 20.8073 80.9775 20.8073C80.725 20.8073 80.52 20.6023 80.52 20.3494C80.52 20.0966 80.725 19.8916 80.9775 19.8916C81.2301 19.8916 81.435 20.0966 81.435 20.3494Z" fill="#333333"/>
</svg>
