<svg width="128" height="128" viewBox="0 0 128 128" fill="none" xmlns="http://www.w3.org/2000/svg">
<circle cx="64" cy="64" r="64" fill="#02485A"/>
<path d="M67.3343 45.2586L81.187 42.0533C84.7974 41.6261 91.7637 42.7319 92.8799 42.8236C98.6558 43.5719 105.464 46.7823 106.048 47.0215C115.433 51.2362 116.763 54.7611 117.033 55.3161C117.871 57.489 116.727 56.8895 116.363 56.8185C115.733 56.8213 114.171 55.1354 114.097 54.8697C114.037 54.6572 113.537 54.5094 113.294 54.4621C113.639 55.4925 114.341 57.6304 114.381 57.9398C114.831 60.1627 113.985 60.6259 113.499 60.5313C112.333 60.0529 111.022 55.7781 110.776 55.1021C110.529 54.4261 109.707 54.7683 109.828 54.7919C109.949 54.8156 110.254 57.1358 110.403 57.6672C110.832 60.6399 109.474 60.5009 109.231 60.4536C108.473 60.2054 107.606 57.5829 107.266 56.3027C107.158 57.077 106.922 58.7225 106.846 59.1099C106.504 62.8115 104.317 57.8635 104.259 56.2193C103.259 59.416 101.005 55.4599 100.661 54.6391C100.316 53.8184 98.4759 54.2135 98.0843 53.6348C97.701 53.0678 95.0345 52.4179 93.0998 52.0361C94.2871 52.39 93.4406 56.1332 93.3721 56.4852C92.9956 58.4216 90.2617 59.522 89.0749 59.7933C90.1641 59.3774 90.6149 57.7067 90.8031 56.7385C89.5474 58.4064 90.0661 59.7933 86.0023 56.8082C84.4007 56.6218 80.3078 57.5831 79.2663 57.7571C78.2243 57.9309 74.1045 58.3845 73.063 58.5585C72.2295 58.6976 70.8031 63.2682 70.1937 65.5361C69.8166 65.965 69.0158 67.3164 68.8337 69.2906C68.6055 71.7583 65.3254 78.9072 65.1605 79.7543C64.9956 80.6014 61.8057 86.6374 61.6138 86.9769C61.1631 88.6472 58.0402 93.6913 57.6091 94.6126C56.9032 96.6857 56.3851 96.8025 56.2139 96.6016C56.2196 96.1422 56.2632 95.0538 56.3949 94.3759C56.5599 93.5288 54.9136 98.1068 54.7253 99.0748C54.6149 100.938 54.2777 101.374 54.035 101.327C53.0874 101.017 54.3389 95.2313 54.8368 93.3186C54.0179 94.2897 53.1942 98.5257 53.0998 99.0094C53.4281 101.209 51.979 102.183 51.7834 101.893C51.4323 101.624 52.7907 94.5529 53.5142 91.0514C52.6755 92.772 50.9665 96.6348 50.8405 98.3181C50.6833 100.423 49.4025 101.179 49.1833 101.01C48.7918 100.432 50.4074 94.7169 50.5251 94.1117C50.2155 95.0564 48.8874 96.054 48.6446 96.0062C48.4018 95.959 49.9432 89.979 50.0137 89.6157C49.7745 90.1976 49.0226 90.1763 48.6585 90.1057C48.2943 90.0346 49.1218 86.4277 49.2395 85.8225C49.3573 85.2173 48.2994 86.7698 47.9352 86.6987C47.571 86.6281 48.7665 83.7204 48.5237 83.6731C47.944 84.0629 47.5055 83.7261 47.2863 83.5579C47.067 83.3897 48.478 80.0216 48.7877 79.0775C48.255 79.2249 47.6246 79.2275 47.4759 78.696C47.3273 78.1647 48.9179 76.4648 49.3019 75.7859C48.7222 76.1755 47.7003 75.5996 47.6259 75.3339C47.5009 74.6815 48.3903 73.3475 49.2326 72.2554C48.7743 72.6686 48.4572 72.3556 48.1166 72.1637C47.776 71.9717 48.5205 70.735 48.7323 69.6458C48.2975 69.938 47.4986 70.1591 47.0366 69.9436C46.5745 69.728 47.2484 68.8544 47.4367 67.8862C46.7411 68.3536 46.4838 68.0355 46.4421 67.818L47.1247 64.3084L46.275 64.1429C46.0996 64.0082 46.4398 63.2957 46.6318 62.9563C46.6148 62.8274 45.9049 63.0659 43.2006 65.0513C40.5933 67.0556 39.2735 66.6729 38.9395 66.231C41.0246 64.7949 45.3149 61.6949 45.7945 60.7835C45.9358 60.0573 38.9718 63.474 35.8503 64.6244C32.7288 65.7749 29.772 66.0782 29.5491 65.2812C29.3892 64.9912 29.5756 64.7904 29.9037 64.6546C27.4119 65.0661 23.708 65.7328 21.4073 66.333C18.4839 67.3714 18.2494 66.8065 18.4976 66.3943L21.6191 65.2438C19.8189 65.6468 15.9373 66.4734 14.8125 66.5558C10.5551 68.3642 10.4499 66.9621 10.5948 66.8647C10.5027 66.3203 16.5535 64.5938 22.2701 63.1325C21.2261 63.3229 20.4824 63.4541 20.3235 63.4841C19.1876 64.1421 11.571 63.789 11.6652 63.3049C11.8759 63.1634 14.317 62.6765 17.3627 62.0884C14.0343 62.3852 7.353 63.0054 5.62665 63.2592C3.44901 64.0911 3.53946 62.9782 3.56301 62.8572C3.82961 62.0047 15.7859 60.2556 21.7308 59.4876L17.725 58.7073C16.6508 57.4932 17.4971 57.0719 18.0545 57.013C20.6545 57.8963 24.8016 57.9504 25.7727 58.1396C27.3265 58.4422 37.399 55.7986 42.241 54.4389C41.3945 54.3154 39.3859 53.9818 38.0447 53.6253C38.0243 53.6214 38.0068 53.6167 37.9924 53.6113C38.0097 53.616 38.0272 53.6207 38.0447 53.6253C39.0248 53.816 46.8016 52.4331 47.4423 52.3118C49.6017 50.0194 61.6034 46.6545 67.3343 45.2586Z" fill="#FD8C11"/>
<path d="M88.7693 59.9641C89.5992 59.7565 90.498 57.6284 90.844 56.5903C91.1899 56.5903 92.1407 56.6941 93.178 57.1094C92.6593 58.407 90.9218 59.4256 88.7693 59.9641Z" fill="#787878"/>
<path d="M88.8274 59.9497C89.1977 59.8303 89.5603 59.1724 89.8066 58.9258C89.9695 58.9258 90.3559 59.0575 90.844 59.1853C90.6049 59.5767 89.7791 59.7187 88.8274 59.9497C88.8077 59.9559 88.7885 59.9607 88.7693 59.9639C88.7885 59.9591 88.8082 59.9544 88.8274 59.9497Z" fill="#333333"/>
<path d="M89.5475 58.6665C88.5636 59.1589 86.7814 57.5419 85.9168 56.8499L90.8442 56.5903C90.4982 57.1959 90.0662 58.407 89.5475 58.6665Z" fill="#333333"/>
<path d="M89.8066 54.2537C90.3795 54.2537 90.844 53.7889 90.844 53.2156C90.844 52.6423 90.3795 52.1775 89.8066 52.1775C89.2337 52.1775 88.7693 52.6423 88.7693 53.2156C88.7693 53.7889 89.2337 54.2537 89.8066 54.2537Z" fill="#F3F3F3"/>
<path d="M90.3257 53.217C90.3257 53.5037 90.0933 53.7361 89.807 53.7361C89.5207 53.7361 89.2883 53.5037 89.2883 53.217C89.2883 52.9304 89.5207 52.698 89.807 52.698C90.0933 52.698 90.3257 52.9304 90.3257 53.217Z" fill="#333333"/>
</svg>
